Format                           : MPEG-TS
File size                        : 930 MiB
Duration                         : 12mn 55s
Overall bit rate                 : 10.1 Mbps

Video
ID                               : 69 (0x45)
Menu ID                          : 1 (0x1)
Format                           : AVC
Format/Info                      : Advanced Video Codec
Format profile                   : Main@L4.0
Format settings, CABAC           : Yes
Format settings, ReFrames        : 4 frames
Codec ID                         : 27
Duration                         : 12mn 55s
Bit rate                         : 9 116 Kbps
Width                            : 1 920 pixels
Height                           : 1 080 pixels
Display aspect ratio             : 16:9
Frame rate                       : 25.000 fps
Standard                         : Component
Color space                      : YUV
Chroma subsampling               : 4:2:0
Bit depth                        : 8 bits
Scan type                        : Interlaced
Scan order                       : Top Field First
Bits/(Pixel*Frame)               : 0.176
Stream size                      : 843 MiB (91%)
Color primaries                  : BT.709-5, BT.1361, IEC 61966-2-4, SMPTE RP177
Transfer characteristics         : BT.709-5, BT.1361
Matrix coefficients              : BT.709-5, BT.1361, IEC 61966-2-4 709, SMPTE RP177

Audio
ID                               : 68 (0x44)
Menu ID                          : 1 (0x1)
Format                           : AC-3
Format/Info                      : Audio Coding 3
Mode extension                   : CM (complete main)
Codec ID                         : 129
Duration                         : 12mn 55s
Bit rate mode                    : Constant
Bit rate                         : 448 Kbps
Channel(s)                       : 2 channels
Channel positions                : Front: L R
Sampling rate                    : 48.0 KHz
Bit depth                        : 16 bits
Compression mode                 : Lossy
Delay relative to video          : -30ms
Stream size                      : 41.4 MiB (4%)
Language                         : Russian
